<?xml version="1.0" encoding="UTF-8" standalone="no"?>
<!DOCTYPE svg PUBLIC "-//W3C//DTD SVG 1.1//EN" "http://www.w3.org/Graphics/SVG/1.1/DTD/svg11.dtd">
<svg width="100%" height="100%" viewBox="0 0 14 14" version="1.1" xmlns="http://www.w3.org/2000/svg" xmlns:xlink="http://www.w3.org/1999/xlink" xml:space="preserve" xmlns:serif="http://www.serif.com/" style="fill-rule:evenodd;clip-rule:evenodd;stroke-linejoin:round;stroke-miterlimit:2;">
    <rect id="proxy" x="0" y="0" width="14" height="14" style="fill:none;"/>
    <clipPath id="_clip1">
        <rect id="proxy1" serif:id="proxy" x="0" y="0" width="14" height="14"/>
    </clipPath>
    <g clip-path="url(#_clip1)">
        <g transform="matrix(0.0675,0,0,0.0675,-1.1,-1.1)">
            <circle cx="120" cy="120" r="14" style="fill:none;stroke:black;stroke-width:14.81px;"/>
            <circle cx="120" cy="120" r="19.5" style="fill:none;stroke:black;stroke-width:4px;stroke-linejoin:miter;stroke-miterlimit:4;"/>
            <circle cx="120" cy="120" r="30" style="fill:none;stroke:black;stroke-width:10px;stroke-linejoin:miter;stroke-miterlimit:4;"/>
            <path d="M187,48C168.835,32.294 145.607,23.644 121.594,23.644C66.736,23.644 21.594,68.786 21.594,123.644C21.594,133.594 23.079,143.489 26,153L64,153C75.479,173.504 97.218,186.247 120.716,186.247C142.556,186.247 162.987,175.239 175,157M20,120L90,120" style="fill:none;fill-rule:nonzero;stroke:black;stroke-width:10px;stroke-linejoin:miter;stroke-miterlimit:4;"/>
            <circle cx="178" cy="149" r="6" style="fill:none;stroke:black;stroke-width:14.81px;"/>
            <circle cx="178" cy="149" r="10" style="fill:none;stroke:black;stroke-width:3.2px;stroke-linejoin:miter;stroke-miterlimit:4;"/>
            <circle cx="193" cy="55" r="6" style="fill:none;stroke:black;stroke-width:14.81px;"/>
            <circle cx="193" cy="55" r="10" style="fill:none;stroke:black;stroke-width:3.2px;stroke-linejoin:miter;stroke-miterlimit:4;"/>
            <path d="M53,192C71.165,207.706 94.393,216.356 118.406,216.356C173.264,216.356 218.406,171.214 218.406,116.356C218.406,106.406 216.921,96.511 214,87L176,87C164.521,66.496 142.782,53.753 119.284,53.753C97.444,53.753 77.013,64.761 65,83M220,120L150,120" style="fill:none;fill-rule:nonzero;stroke:black;stroke-width:10px;stroke-linejoin:miter;stroke-miterlimit:4;"/>
            <circle cx="62" cy="91" r="6" style="fill:none;stroke:black;stroke-width:14.81px;"/>
            <circle cx="62" cy="91" r="10" style="fill:none;stroke:black;stroke-width:3.2px;stroke-linejoin:miter;stroke-miterlimit:4;"/>
            <circle cx="47" cy="185" r="6" style="fill:none;stroke:black;stroke-width:14.81px;"/>
            <circle cx="47" cy="185" r="10" style="fill:none;stroke:black;stroke-width:3.2px;stroke-linejoin:miter;stroke-miterlimit:4;"/>
        </g>
    </g>
</svg>
