<?xml version="1.0" encoding="UTF-8" standalone="no"?>
<!DOCTYPE svg PUBLIC "-//W3C//DTD SVG 1.1//EN" "http://www.w3.org/Graphics/SVG/1.1/DTD/svg11.dtd">
<svg width="100%" height="100%" viewBox="0 0 14 14" version="1.1" xmlns="http://www.w3.org/2000/svg" xmlns:xlink="http://www.w3.org/1999/xlink" xml:space="preserve" xmlns:serif="http://www.serif.com/" style="fill-rule:evenodd;clip-rule:evenodd;stroke-linejoin:round;stroke-miterlimit:2;">
    <rect id="aos" x="0" y="0" width="14" height="14" style="fill:none;"/>
    <g id="aos1" serif:id="aos">
        <g transform="matrix(0.121231,0,0,0.121231,-2.54278,-2.78704)">
            <path d="M123.655,76.725C123.695,77.501 123.715,78.283 123.715,79.071C123.715,103.907 103.552,124.071 78.715,124.071C53.879,124.071 33.715,103.907 33.715,79.071C33.715,78.283 33.736,77.501 33.776,76.725L123.655,76.725ZM34.491,70.715C38.415,49.864 56.735,34.071 78.715,34.071C100.696,34.071 119.016,49.864 122.94,70.715L34.491,70.715ZM98.989,48.659C101.749,48.659 103.989,50.899 103.989,53.659C103.989,56.418 101.749,58.659 98.989,58.659C96.23,58.659 93.989,56.418 93.989,53.659C93.989,50.899 96.23,48.659 98.989,48.659ZM59.579,48.595C62.338,48.595 64.579,50.835 64.579,53.595C64.579,56.354 62.338,58.595 59.579,58.595C56.819,58.595 54.579,56.354 54.579,53.595C54.579,50.835 56.819,48.595 59.579,48.595Z"/>
            <g transform="matrix(-1.26745,-0.593278,0.707316,-1.51107,64.2524,365)">
                <path d="M55.763,129.83L64.235,148.741L47.29,148.741L55.763,129.83Z"/>
            </g>
            <g transform="matrix(1.01819,0.767261,-0.601815,0.798636,109.821,-13.2888)">
                <path d="M18.893,33.472C18.893,32.858 18.502,32.36 18.02,32.36L17.486,32.36C17.004,32.36 16.613,32.858 16.613,33.472L16.613,55.742C16.613,56.356 17.004,56.855 17.486,56.855L18.02,56.855C18.502,56.855 18.893,56.356 18.893,55.742L18.893,33.472Z"/>
            </g>
            <g transform="matrix(1.01819,-0.767261,0.601815,0.798636,11.7666,13.9322)">
                <path d="M18.893,33.472C18.893,32.858 18.502,32.36 18.02,32.36L17.486,32.36C17.004,32.36 16.613,32.858 16.613,33.472L16.613,55.742C16.613,56.356 17.004,56.855 17.486,56.855L18.02,56.855C18.502,56.855 18.893,56.356 18.893,55.742L18.893,33.472Z"/>
            </g>
        </g>
    </g>
</svg>
