<?xml version="1.0" encoding="UTF-8" standalone="no"?>
<!DOCTYPE svg PUBLIC "-//W3C//DTD SVG 1.1//EN" "http://www.w3.org/Graphics/SVG/1.1/DTD/svg11.dtd">
<svg width="100%" height="100%" viewBox="0 0 14 14" version="1.1" xmlns="http://www.w3.org/2000/svg" xmlns:xlink="http://www.w3.org/1999/xlink" xml:space="preserve" xmlns:serif="http://www.serif.com/" style="fill-rule:evenodd;clip-rule:evenodd;stroke-linejoin:round;stroke-miterlimit:2;">
    <rect id="aos" x="0" y="0" width="14" height="14" style="fill:none;"/>
    <g id="aos1" serif:id="aos">
        <g transform="matrix(0.0400672,0,0,0.0400672,7,2.895)">
            <g>
                <g id="a" transform="matrix(-1,0,0,1,0,0)">
                    <g transform="matrix(0.335828,0.186153,-0.48481,0.87462,9.36862,9.65871)">
                        <path d="M27,-83.504C27,-84.882 24.087,-86 20.5,-86C16.913,-86 14,-84.882 14,-83.504L14,-2.496C14,-1.118 16.913,0 20.5,0C24.087,0 27,-1.118 27,-2.496L27,-83.504Z"/>
                    </g>
                    <g id="c" transform="matrix(0.831936,0,0,0.831936,132.987,122.541)">
                        <path d="M-95,65C-95,51.754 -105.754,41 -119,41C-132.246,41 -143,51.754 -143,65L-143,150C-143,163.246 -132.246,174 -119,174C-105.754,174 -95,163.246 -95,150L-95,65Z"/>
                    </g>
                    <g id="c1" serif:id="c" transform="matrix(0.831936,0,0,0.831936,65.1087,122.529)">
                        <path d="M-95,65C-95,51.754 -105.754,41 -119,41C-132.246,41 -143,51.754 -143,65L-143,150C-143,163.246 -132.246,174 -119,174C-105.754,174 -95,163.246 -95,150L-95,65Z"/>
                    </g>
                </g>
                <g id="a1" serif:id="a">
                    <g transform="matrix(0.335828,0.186153,-0.48481,0.87462,9.65339,9.58812)">
                        <path d="M27,-83.504C27,-84.882 24.087,-86 20.5,-86C16.913,-86 14,-84.882 14,-83.504L14,-2.496C14,-1.118 16.913,0 20.5,0C24.087,0 27,-1.118 27,-2.496L27,-83.504Z"/>
                    </g>
                    <g id="c2" serif:id="c" transform="matrix(0.831936,0,0,0.938274,-18.5878,7.2404)">
                        <path d="M-95,62.28C-95,50.535 -105.754,41 -119,41C-132.246,41 -143,50.535 -143,62.28L-143,152.72C-143,164.465 -132.246,174 -119,174C-105.754,174 -95,164.465 -95,152.72L-95,62.28Z"/>
                    </g>
                    <g id="c3" serif:id="c" transform="matrix(0.831936,0,0,0.938274,217.024,7.07696)">
                        <path d="M-95,62.28C-95,50.535 -105.754,41 -119,41C-132.246,41 -143,50.535 -143,62.28L-143,152.72C-143,164.465 -132.246,174 -119,174C-105.754,174 -95,164.465 -95,152.72L-95,62.28Z"/>
                    </g>
                </g>
                <g id="b">
                    <g transform="matrix(24.9581,0,0,24.9581,-174.707,-72.2536)">
                        <path d="M8.639,7.544C8.146,7.774 7.589,7.903 7,7.903C6.411,7.903 5.854,7.774 5.361,7.544L8.639,7.544ZM3.354,4.521C3.364,2.671 4.994,1.172 7,1.172C9.006,1.172 10.636,2.671 10.646,4.521L3.354,4.521ZM8.683,2.589C8.849,2.589 8.983,2.723 8.983,2.889C8.983,3.054 8.849,3.189 8.683,3.189C8.518,3.189 8.383,3.054 8.383,2.889C8.383,2.723 8.518,2.589 8.683,2.589ZM5.311,2.586C5.477,2.586 5.611,2.72 5.611,2.886C5.611,3.052 5.477,3.186 5.311,3.186C5.146,3.186 5.011,3.052 5.011,2.886C5.011,2.72 5.146,2.586 5.311,2.586Z"/>
                    </g>
                    <g transform="matrix(24.9581,0,0,24.9581,-174.707,-72.2536)">
                        <path d="M10.646,4.818L3.354,4.818L3.354,8.994C3.354,10.095 4.248,10.989 5.349,10.989L8.651,10.989C9.752,10.989 10.646,10.095 10.646,8.994L10.646,4.818Z"/>
                    </g>
                </g>
            </g>
        </g>
    </g>
</svg>
