<?xml version="1.0" encoding="UTF-8" standalone="no"?>
<!DOCTYPE svg PUBLIC "-//W3C//DTD SVG 1.1//EN" "http://www.w3.org/Graphics/SVG/1.1/DTD/svg11.dtd">
<svg width="100%" height="100%" viewBox="0 0 14 14" version="1.1" xmlns="http://www.w3.org/2000/svg" xmlns:xlink="http://www.w3.org/1999/xlink" xml:space="preserve" xmlns:serif="http://www.serif.com/" style="fill-rule:evenodd;clip-rule:evenodd;stroke-linejoin:round;stroke-miterlimit:2;">
    <rect id="zone" x="0" y="0" width="14" height="14" style="fill:none;"/>
    <g id="zone1" serif:id="zone">
        <g transform="matrix(0.0132653,0,0,0.0132653,0.367347,0.367347)">
            <path d="M617.5,323.1L500,99.1L382.5,323.1L143.6,371.3L309.9,558L279.7,811.8L500,703.2L720.2,811.8L690,558L856.3,371.3L617.5,323.1ZM589.1,410.9L567.7,410.9L429.4,589.1L589.1,589.1L589.1,633.6L366.4,633.6L366.4,610L360.4,605.4L366.4,597.6L366.4,589.1L373,589.1L511.3,410.9L366.4,410.9L366.4,366.4L545.9,366.4L551.6,359L561,366.4L589.1,366.4L589.1,410.9ZM500,10C229.4,10 10,229.4 10,500C10,770.6 229.4,990 500,990C770.6,990 990,770.6 990,500C990,229.4 770.6,10 500,10ZM500,945.5C254,945.5 54.5,746 54.5,500C54.5,254 254,54.5 500,54.5C746,54.5 945.5,254 945.5,500C945.5,746 746,945.5 500,945.5Z" style="fill-rule:nonzero;"/>
        </g>
    </g>
</svg>
