<?xml version="1.0" encoding="UTF-8" standalone="no"?>
<!DOCTYPE svg PUBLIC "-//W3C//DTD SVG 1.1//EN" "http://www.w3.org/Graphics/SVG/1.1/DTD/svg11.dtd">
<svg width="100%" height="100%" viewBox="0 0 14 14" version="1.1" xmlns="http://www.w3.org/2000/svg" xmlns:xlink="http://www.w3.org/1999/xlink" xml:space="preserve" xmlns:serif="http://www.serif.com/" style="fill-rule:evenodd;clip-rule:evenodd;stroke-linejoin:round;stroke-miterlimit:2;">
    <rect id="translate" x="0" y="0" width="14" height="14" style="fill:none;"/>
    <g id="translate1" serif:id="translate">
        <g transform="matrix(0.0569167,0,0,0.0569167,0.5,0.5)">
            <path d="M215.428,73.112L135.631,73.112L122.633,16.702L12.977,16.702C5.821,16.701 0,22.523 0,29.678L0,142.315C0,149.47 5.821,155.292 12.977,155.292L92.771,155.292L105.77,211.702L215.429,211.702C222.583,211.702 228.404,205.881 228.404,198.725L228.404,86.088C228.403,78.933 222.583,73.112 215.428,73.112ZM15,140.291L15,31.701L110.696,31.701L135.718,140.291L15,140.291ZM108.164,155.291L136.359,155.291L115.225,185.934L108.164,155.291ZM213.403,196.701L126.02,196.701L142.215,173.22L144.673,177.224C154.474,171.206 162.211,164.176 168.319,157.021L187.304,176.387L195.16,168.686L175.057,148.18C183.512,135.731 187.475,124.017 189.135,117.799L202.032,117.799L202.032,106.799L174.71,106.799L174.71,100.244L163.71,100.244L163.71,106.799L143.393,106.799L139.087,88.111L213.401,88.111L213.401,196.701L213.403,196.701ZM154.565,155.291L154.568,155.291L150.863,139.213L160.552,149.096C158.563,151.486 156.372,153.861 153.964,156.185L154.575,155.298L154.565,155.291ZM154.44,127.148L149.254,132.232L145.928,117.799L177.658,117.799C175.974,123.17 172.788,131.34 167.144,140.108L154.44,127.148ZM67.831,78.495L104.905,78.495L104.905,85.995C104.905,106.437 88.274,123.069 67.831,123.069C47.388,123.069 30.757,106.437 30.757,85.995C30.757,65.553 47.388,48.922 67.831,48.922C76.092,48.922 83.908,51.58 90.434,56.608L81.279,68.491C77.401,65.502 72.751,63.923 67.831,63.923C55.66,63.923 45.757,73.825 45.757,85.996C45.757,98.168 55.659,108.07 67.831,108.07C77.37,108.07 85.516,101.986 88.593,93.496L67.831,93.496L67.831,78.495Z" style="fill-rule:nonzero;"/>
        </g>
    </g>
</svg>
