<?xml version="1.0" encoding="UTF-8" standalone="no"?>
<!DOCTYPE svg PUBLIC "-//W3C//DTD SVG 1.1//EN" "http://www.w3.org/Graphics/SVG/1.1/DTD/svg11.dtd">
<svg width="100%" height="100%" viewBox="0 0 79 79" version="1.1" xmlns="http://www.w3.org/2000/svg" xmlns:xlink="http://www.w3.org/1999/xlink" xml:space="preserve" xmlns:serif="http://www.serif.com/" style="fill-rule:evenodd;clip-rule:evenodd;stroke-linejoin:round;stroke-miterlimit:2;">
    <g id="Artboard2" transform="matrix(0.760523,0,0,0.791411,-370.483,-261.855)">
        <rect x="487.143" y="330.871" width="103.744" height="99.695" style="fill:none;"/>
        <g id="Regular-S" transform="matrix(1.31488,0,0,1.26357,478.154,425.145)">
            <path d="M46.24,4.199C67.773,4.199 85.693,-13.672 85.693,-35.205C85.693,-56.738 67.725,-74.609 46.191,-74.609C24.707,-74.609 6.836,-56.738 6.836,-35.205C6.836,-13.672 24.756,4.199 46.24,4.199ZM28.32,-33.398C28.32,-43.213 36.426,-50.928 45.264,-50.928L45.703,-50.928L43.75,-53.027C43.311,-53.516 42.92,-54.248 42.92,-55.029C42.92,-56.592 44.141,-57.861 45.752,-57.861C46.533,-57.861 47.266,-57.568 47.754,-57.031L55.225,-49.463C56.201,-48.389 56.299,-46.484 55.225,-45.41L47.705,-37.988C47.217,-37.5 46.484,-37.158 45.752,-37.158C44.141,-37.158 42.92,-38.379 42.92,-39.941C42.92,-40.723 43.262,-41.455 43.75,-41.895L46.826,-44.971C46.68,-45.02 46.387,-45.02 46.191,-45.02C39.697,-45.02 34.473,-39.746 34.473,-33.203C34.473,-26.709 39.697,-21.436 46.191,-21.436C52.734,-21.436 57.959,-26.709 57.959,-33.203C57.959,-34.912 59.375,-36.279 61.084,-36.279C62.695,-36.279 64.111,-34.912 64.111,-33.203C64.111,-23.34 56.103,-15.234 46.191,-15.234C36.279,-15.234 28.32,-23.34 28.32,-33.398Z" style="fill-rule:nonzero;"/>
        </g>
    </g>
</svg>
